<svg xmlns="http://www.w3.org/2000/svg" viewBox="0 0 100 100" width="100" height="100">
  <defs>
    <linearGradient id="logoGradient" x1="0%" y1="0%" x2="100%" y2="100%">
      <stop offset="0%" style="stop-color:#ff6b9d;stop-opacity:1" />
      <stop offset="50%" style="stop-color:#c44569;stop-opacity:1" />
      <stop offset="100%" style="stop-color:#f8b500;stop-opacity:1" />
    </linearGradient>
    <filter id="glow">
      <feGaussianBlur stdDeviation="3" result="coloredBlur"/>
      <feMerge> 
        <feMergeNode in="coloredBlur"/>
        <feMergeNode in="SourceGraphic"/>
      </feMerge>
    </filter>
  </defs>
  
  <!-- Background Circle -->
  <circle cx="50" cy="50" r="45" fill="url(#logoGradient)" opacity="0.1"/>
  
  <!-- Heart Symbol -->
  <path d="M50,85 C50,85 20,60 20,40 C20,25 30,15 45,15 C50,15 50,25 50,25 C50,25 50,15 55,15 C70,15 80,25 80,40 C80,60 50,85 50,85 Z" 
        fill="url(#logoGradient)" 
        filter="url(#glow)"/>
  
  <!-- Infinity Symbol -->
  <path d="M30,50 Q35,40 40,50 Q45,60 50,50 Q55,40 60,50 Q65,60 70,50 Q65,40 60,50 Q55,60 50,50 Q45,40 40,50 Q35,60 30,50 Z" 
        fill="none" 
        stroke="url(#logoGradient)" 
        stroke-width="3" 
        opacity="0.8"/>
  
  <!-- Lotus Petals -->
  <g opacity="0.6">
    <path d="M50,20 L55,25 L50,30 L45,25 Z" fill="url(#logoGradient)"/>
    <path d="M70,30 L75,35 L70,40 L65,35 Z" fill="url(#logoGradient)"/>
    <path d="M30,30 L35,35 L30,40 L25,35 Z" fill="url(#logoGradient)"/>
    <path d="M50,70 L55,65 L50,60 L45,65 Z" fill="url(#logoGradient)"/>
  </g>
</svg>
