<svg xmlns="http://www.w3.org/2000/svg" viewBox="0 0 100 100" width="100" height="100">
  <defs>
    <linearGradient id="wellnessGradient" x1="0%" y1="0%" x2="100%" y2="100%">
      <stop offset="0%" style="stop-color:#84fab0;stop-opacity:1" />
      <stop offset="100%" style="stop-color:#8fd3f4;stop-opacity:1" />
    </linearGradient>
    <filter id="wellnessGlow">
      <feGaussianBlur stdDeviation="2" result="coloredBlur"/>
      <feMerge> 
        <feMergeNode in="coloredBlur"/>
        <feMergeNode in="SourceGraphic"/>
      </feMerge>
    </filter>
  </defs>
  
  <!-- Background Circle -->
  <circle cx="50" cy="50" r="45" fill="url(#wellnessGradient)" opacity="0.1"/>
  
  <!-- Wellness Symbol -->
  <g filter="url(#wellnessGlow)">
    <!-- Central Heart -->
    <path d="M50,60 C50,60 40,50 40,40 C40,30 45,25 50,25 C55,25 60,30 60,40 C60,50 50,60 50,60 Z" 
          fill="url(#wellnessGradient)" 
          opacity="0.8"/>
    
    <!-- Wellness Rays -->
    <g opacity="0.7">
      <path d="M50,20 L52,25 L50,30 L48,25 Z" fill="url(#wellnessGradient)"/>
      <path d="M70,30 L72,35 L70,40 L68,35 Z" fill="url(#wellnessGradient)"/>
      <path d="M30,30 L32,35 L30,40 L28,35 Z" fill="url(#wellnessGradient)"/>
      <path d="M50,80 L52,75 L50,70 L48,75 Z" fill="url(#wellnessGradient)"/>
      <path d="M20,50 L25,52 L30,50 L25,48 Z" fill="url(#wellnessGradient)"/>
      <path d="M80,50 L75,52 L70,50 L75,48 Z" fill="url(#wellnessGradient)"/>
    </g>
  </g>
  
  <!-- Energy Flow -->
  <g opacity="0.6">
    <circle cx="50" cy="50" r="2" fill="url(#wellnessGradient)">
      <animate attributeName="r" values="2;6;2" dur="3s" repeatCount="indefinite"/>
      <animate attributeName="opacity" values="0.6;0.2;0.6" dur="3s" repeatCount="indefinite"/>
    </circle>
  </g>
  
  <!-- Wellness Elements -->
  <g opacity="0.8">
    <!-- Leaf -->
    <path d="M25,60 Q30,55 35,60 Q30,65 25,60 Z" fill="url(#wellnessGradient)"/>
    <!-- Flower -->
    <circle cx="75" cy="60" r="5" fill="url(#wellnessGradient)" opacity="0.6"/>
    <circle cx="75" cy="60" r="3" fill="url(#wellnessGradient)" opacity="0.8"/>
  </g>
</svg>
