<svg xmlns="http://www.w3.org/2000/svg" viewBox="0 0 100 100" width="100" height="100">
  <defs>
    <linearGradient id="breathGradient" x1="0%" y1="0%" x2="100%" y2="100%">
      <stop offset="0%" style="stop-color:#a8edea;stop-opacity:1" />
      <stop offset="100%" style="stop-color:#fed6e3;stop-opacity:1" />
    </linearGradient>
    <filter id="breathGlow">
      <feGaussianBlur stdDeviation="2" result="coloredBlur"/>
      <feMerge> 
        <feMergeNode in="coloredBlur"/>
        <feMergeNode in="SourceGraphic"/>
      </feMerge>
    </filter>
  </defs>
  
  <!-- Background Circle -->
  <circle cx="50" cy="50" r="45" fill="url(#breathGradient)" opacity="0.1"/>
  
  <!-- Breathing Circles -->
  <g filter="url(#breathGlow)">
    <!-- Inhale Circle -->
    <circle cx="50" cy="50" r="15" fill="url(#breathGradient)" opacity="0.8">
      <animate attributeName="r" values="15;25;15" dur="4s" repeatCount="indefinite"/>
      <animate attributeName="opacity" values="0.8;0.4;0.8" dur="4s" repeatCount="indefinite"/>
    </circle>
    
    <!-- Exhale Circle -->
    <circle cx="50" cy="50" r="10" fill="url(#breathGradient)" opacity="0.6">
      <animate attributeName="r" values="10;20;10" dur="4s" repeatCount="indefinite" begin="2s"/>
      <animate attributeName="opacity" values="0.6;0.2;0.6" dur="4s" repeatCount="indefinite" begin="2s"/>
    </circle>
  </g>
  
  <!-- Breath Flow Lines -->
  <g opacity="0.7">
    <path d="M30,50 Q40,40 50,50 Q60,60 70,50" 
          fill="none" 
          stroke="url(#breathGradient)" 
          stroke-width="3" 
          opacity="0.6">
      <animate attributeName="opacity" values="0.6;0.2;0.6" dur="4s" repeatCount="indefinite"/>
    </path>
    
    <path d="M70,50 Q60,40 50,50 Q40,60 30,50" 
          fill="none" 
          stroke="url(#breathGradient)" 
          stroke-width="3" 
          opacity="0.6">
      <animate attributeName="opacity" values="0.2;0.6;0.2" dur="4s" repeatCount="indefinite" begin="2s"/>
    </path>
  </g>
  
  <!-- Lotus Symbol -->
  <g opacity="0.8">
    <path d="M50,20 L55,25 L50,30 L45,25 Z" fill="url(#breathGradient)"/>
    <path d="M70,30 L75,35 L70,40 L65,35 Z" fill="url(#breathGradient)"/>
    <path d="M30,30 L35,35 L30,40 L25,35 Z" fill="url(#breathGradient)"/>
    <path d="M50,70 L55,65 L50,60 L45,65 Z" fill="url(#breathGradient)"/>
  </g>
</svg>
