<svg xmlns="http://www.w3.org/2000/svg" viewBox="0 0 100 100" width="100" height="100">
  <defs>
    <linearGradient id="commGradient" x1="0%" y1="0%" x2="100%" y2="100%">
      <stop offset="0%" style="stop-color:#667eea;stop-opacity:1" />
      <stop offset="100%" style="stop-color:#764ba2;stop-opacity:1" />
    </linearGradient>
    <filter id="softGlow">
      <feGaussianBlur stdDeviation="2" result="coloredBlur"/>
      <feMerge> 
        <feMergeNode in="coloredBlur"/>
        <feMergeNode in="SourceGraphic"/>
      </feMerge>
    </filter>
  </defs>
  
  <!-- Background Circle -->
  <circle cx="50" cy="50" r="45" fill="url(#commGradient)" opacity="0.1"/>
  
  <!-- Speech Bubbles -->
  <g filter="url(#softGlow)">
    <!-- Main Speech Bubble -->
    <ellipse cx="50" cy="40" rx="25" ry="15" fill="url(#commGradient)" opacity="0.8"/>
    <path d="M40,55 L35,65 L45,55 Z" fill="url(#commGradient)" opacity="0.8"/>
    
    <!-- Response Speech Bubble -->
    <ellipse cx="50" cy="70" rx="20" ry="12" fill="url(#commGradient)" opacity="0.6"/>
    <path d="M60,82 L55,90 L65,82 Z" fill="url(#commGradient)" opacity="0.6"/>
  </g>
  
  <!-- Heart Symbols -->
  <g opacity="0.7">
    <path d="M30,25 C30,25 25,20 25,25 C25,30 30,35 30,35 C30,35 35,30 35,25 C35,20 30,25 30,25 Z" 
          fill="url(#commGradient)" opacity="0.6"/>
    <path d="M70,25 C70,25 65,20 65,25 C65,30 70,35 70,35 C70,35 75,30 75,25 C75,20 70,25 70,25 Z" 
          fill="url(#commGradient)" opacity="0.6"/>
  </g>
  
  <!-- Connection Lines -->
  <path d="M30,35 Q40,45 50,40" fill="none" stroke="url(#commGradient)" stroke-width="2" opacity="0.5"/>
  <path d="M70,35 Q60,45 50,40" fill="none" stroke="url(#commGradient)" stroke-width="2" opacity="0.5"/>
</svg>
